<svg width="18px" height="18px" viewBox="0 0 18 18" version="1.1" xmlns="http://www.w3.org/2000/svg"
    xmlns:xlink="http://www.w3.org/1999/xlink">
    <title>icon_nav_chain</title>
    <g id="主页" stroke="none" stroke-width="1" fill="none" fill-rule="evenodd">
        <g id="跨链桥-交易记录" transform="translate(-1429.000000, -31.000000)" fill="#fff" fill-rule="nonzero">
            <g id="btn/导航/主网备份-4" transform="translate(1409.000000, 19.000000)">
                <g id="icon_nav_chain" transform="translate(20.000000, 12.000000)">
                    <path
                        d="M9,0 C4.02943725,0 0,4.02943725 0,9 C0,13.9705627 4.02943725,18 9,18 C13.9705627,18 18,13.9705627 18,9 C17.9896858,4.03371582 13.9662842,0.0103142229 9,0 Z M16.565625,8.4375 C15.825,8.55937501 14.353125,8.75625001 12.515625,8.8875 C12.5813673,6.44135094 12.1143242,4.01016754 11.146875,1.76249999 C14.1420687,2.65066242 16.2905552,5.27865548 16.565625,8.39062501 L16.565625,8.4375 Z M9,16.575 C8.353125,16.575 7.12500001,14.38125 6.92812501,10.33125 C7.59375,10.33125 8.28750001,10.378125 9,10.378125 C9.71249999,10.378125 10.40625,10.378125 11.071875,10.33125 C10.875,14.38125 9.646875,16.575 9,16.575 L9,16.575 Z M9,9 C8.27812501,9 7.565625,9 6.890625,8.95312499 C6.890625,4.09687501 8.28749999,1.45312499 9,1.45312499 C9.71250001,1.45312499 11.090625,4.09687499 11.109375,8.95312499 C10.434375,9 9.73125,9 9,9 Z M6.85312499,1.715625 C5.88701186,3.9604063 5.41999677,6.38824507 5.484375,8.83125 C3.60937501,8.690625 2.109375,8.47500001 1.434375,8.37187499 C1.69584872,5.24825658 3.84747667,2.60525339 6.85312499,1.715625 L6.85312499,1.715625 Z M1.44375001,9.79687501 C2.24062501,9.91875001 3.70312501,10.115625 5.52187501,10.246875 C5.55250468,12.3287243 6.00539841,14.3826931 6.85312499,16.284375 C3.90847171,15.4079338 1.77655637,12.8511134 1.44375001,9.79687501 L1.44375001,9.79687501 Z M11.146875,16.284375 C11.9936123,14.3856688 12.4464897,12.3349631 12.478125,10.25625 C13.8392669,10.1631582 15.1964611,10.0193081 16.546875,9.82500001 C16.2120682,12.8691809 14.0835167,15.4153129 11.146875,16.284375 L11.146875,16.284375 Z"
                        id="形状"></path>
                </g>
            </g>
        </g>
    </g>
</svg>