<svg width="36px" height="36px" viewBox="0 0 36 36" version="1.1" xmlns="http://www.w3.org/2000/svg"
    xmlns:xlink="http://www.w3.org/1999/xlink">
    <title>icon_convert</title>
    <g id="主页" stroke="none" stroke-width="1" fill="none" fill-rule="evenodd">
        <g id="跨链桥-01" transform="translate(-942.000000, -484.000000)" fill="rgba(219, 178, 92, 1)" fill-rule="nonzero">
            <g id="卡片/信息" transform="translate(360.000000, 300.000000)">
                <g id="icon/转换" transform="translate(582.000000, 184.000000)">
                    <g id="icon_convert" transform="translate(0.000000, 2.000000)">
                        <path
                            d="M36,20.1593291 L36,22.7309574 C36,23.4241789 35.4454713,23.9832285 34.7578558,23.9832285 L10.6247689,23.9832285 L14.6617375,28.0531097 C15.1497227,28.5450734 15.1497227,29.3277428 14.6617375,29.8197065 L12.8650647,31.6310273 C12.3770795,32.1229909 11.6007394,32.1229909 11.1127542,31.6310273 L0.487985213,20.9196366 C0.022181146,20.4500349 0.022181146,19.7120894 0.487985213,19.2424878 C0.709796673,19.0188679 0.998151571,18.907058 1.30868762,18.907058 L34.7578558,18.907058 C35.4454713,18.907058 36,19.4661076 36,20.1593291 L36,20.1593291 Z M34.6913124,13.092942 L1.24214418,13.092942 C0.554528651,13.092942 0,12.5338924 0,11.8406709 L0,9.26904263 C0,8.5758211 0.554528651,8.01677149 1.24214418,8.01677149 L25.3752311,8.01677149 L21.3382625,3.94689029 C20.8502773,3.45492662 20.8502773,2.67225716 21.3382625,2.1802935 L23.1349353,0.368972746 C23.6229205,-0.122990915 24.3992606,-0.122990915 24.8872458,0.368972746 L35.5120148,11.0803634 C35.9778189,11.5499651 35.9778189,12.2879106 35.5120148,12.7575122 C35.2902033,12.9811321 35.0018484,13.092942 34.6913124,13.092942 L34.6913124,13.092942 Z"
                            id="形状"></path>
                    </g>
                </g>
            </g>
        </g>
    </g>
</svg>