<svg t="1662299815586" class="icon" viewBox="0 0 1063 1024" version="1.1" xmlns="http://www.w3.org/2000/svg"
  p-id="23980" width="64" height="64">
  <defs>
    <linearGradient id="Gradient1">
      <stop stop-color="#eccc81" offset="0%" />
      <stop stop-color="#dbb45c" offset="50%" />
      <stop stop-color="#ca9a34" offset="100%" />
    </linearGradient>
  </defs>
  <path
    d="M1041.431728 583.958425 597.574074 456.179414C578.612933 450.753427 569.191989 461.30727 576.585641 479.552896l50.682295 125.155456c7.453279 18.245626-1.490656 39.293685-19.855534 46.627712 0 0-116.986663 46.687338-205.531614 46.687338-67.019882 0-152.345017-25.162269-152.345017-25.162269-18.901515-5.604866-22.896472 1.192525-8.70543 14.966184 0 0 110.606656 202.371424 365.926172 186.272342 42.871259-2.742807 88.306446-8.407298 88.306446-8.407298 19.378525-3.6372 41.320977 8.407298 48.71463 26.772177l47.402853 117.046289c7.453279 18.364879 21.8232 19.438151 32.138538 2.563928l234.032952-387.451241C1067.548017 607.689664 1060.392869 589.384412 1041.431728 583.958425zM485.476762 544.426234l-50.682295-125.09583C427.400815 401.084778 436.285123 380.155972 454.650002 372.762319c0 0 117.046289-46.80659 205.531614-46.80659 66.960256 0 152.345017 25.281521 152.345017 25.281521 18.841889 5.485613 22.896472-1.192525 8.70543-15.085436 0 0-110.606656-202.371424-365.926172-186.153089-42.930885 2.623554-88.24682 8.407298-88.24682 8.407298C347.620919 162.043223 325.678467 149.998725 318.225188 131.693472L270.822335 14.647183C263.369057-3.777322 248.939509-4.91022 238.743424 11.904377L4.650846 399.415244C-5.545239 416.349093 1.550282 434.713972 20.630675 440.139959l443.798028 127.77901C483.389844 573.28533 492.930041 562.791113 485.476762 544.426234z"
    p-id="23981" fill="url(#Gradient1)"></path>
</svg>