<svg width="28px" height="28px" viewBox="0 0 28 28" version="1.1" xmlns="http://www.w3.org/2000/svg"
  xmlns:xlink="http://www.w3.org/1999/xlink">
  <rect fill="#FFFFFF" x="0" y="0" width="28" height="28" rx="6"></rect>
  <g transform="translate(3.000000, 7.000000)" fill-rule="nonzero">
    <path
      d="M8.62584745,0 L8.4794531,0 L0.672611581,0 C0.300710256,0 0,0.296536232 0,0.663376812 L0,3.35563768 C0,3.72247826 0.300710256,4.01901449 0.672611581,4.01901449 L2.50464998,4.01901449 L3.23271241,4.01901449 L3.23271241,4.81498551 L3.23271241,13.3367246 C3.23271241,13.7034638 3.53342266,14 3.90542686,14 L6.77014728,14 C7.14204861,14 7.44275886,13.7034638 7.44275886,13.3367246 L7.44275886,4.81498551 L7.44275886,4.74082609 L7.44275886,4.01901449 L8.17082129,4.01901449 L8.46762221,4.01901449 L8.61401656,4.01901449 C9.73774497,4.01901449 10.6517066,3.11763768 10.6517066,2.00950725 C10.6636404,0.901376812 9.74957585,0 8.62584745,0 Z"
      fill="#2980FE"></path>
    <path
      d="M16.247369,11.1126522 C16.0161024,11.1086957 15.7848358,11.0892174 15.5616547,11.057971 L15.3253735,11.019433 L15.3253735,11.019433 L15.0950787,10.9721449 L14.8698366,10.9158787 C12.4834113,10.2682677 10.731025,8.11412824 10.731025,5.55637681 C10.731025,2.48946377 13.2554274,0 16.3655101,0 C19.4795021,0 22.0040074,2.48946377 22,5.55637681 C22,8.51788406 19.6496611,10.9370435 16.689985,11.1048406 C16.5830955,11.1086957 16.4763089,11.1126522 16.3655101,11.1126522 L16.3750787,11.1125507 L16.247369,11.1126522 Z M16.4951946,4.31026194 L16.3655101,4.30378261 C15.6651217,4.30378261 15.0953874,4.86571014 15.0953874,5.55637681 L15.0950787,5.55627536 C15.0950787,6.17542705 15.5535309,6.68914905 16.1560715,6.78978342 L16.2872783,6.80491304 L16.3292089,6.80827355 L16.3655101,6.80886957 C16.4763089,6.80886957 16.5871077,6.79324638 16.689985,6.76595652 C17.2359547,6.62544928 17.6356329,6.13768116 17.6356329,5.55637681 C17.6356329,4.86571014 17.0658986,4.30378261 16.3655101,4.30378261 Z"
      fill="#2980FE"></path>
    <path
      d="M16.247369,11.1126522 C16.0161024,11.1086957 15.7848358,11.0892174 15.5616547,11.057971 C15.4021212,11.0345362 15.2466304,11.0072464 15.0950787,10.9721449 L15.0950787,10.9721449 L15.0950787,5.55627536 C15.0950787,6.21965217 15.6213631,6.762 16.2872783,6.80491304 L16.2872783,6.80491304 L16.3292089,6.80827355 L16.3292089,6.80827355 L16.3750787,6.80876812 L16.3750787,11.1125507 L16.3750787,11.1125507 Z"
      fill="url(#linearGradient-1)"></path>
    <path
      d="M15.0913751,5.55627536 L10.731025,5.55627536 L10.731025,13.3171449 C10.731025,13.6839855 11.0317352,13.9805217 11.4036366,13.9805217 L14.4187636,13.9805217 C14.7906649,13.9805217 15.0913751,13.6839855 15.0913751,13.3171449 L15.0913751,5.55627536 Z"
      fill="#2980FE"></path>
  </g>
</svg>