<svg t="1653040330490" class="icon" viewBox="0 0 1660 1024" version="1.1" xmlns="http://www.w3.org/2000/svg"
  p-id="17489" width="128" height="128">
  <path
    d="M340.073168 200.681859c270.723459-265.066551 709.670746-265.066551 980.39974 0l32.579806 31.904519a33.437751 33.437751 0 0 1 0 47.989622l-111.455482 109.130724a17.596195 17.596195 0 0 1-24.509578 0l-44.84013-43.899156c-188.869881-184.917795-495.084627-184.917795-683.954508 0l-48.017297 47.015437a17.596195 17.596195 0 0 1-24.509578 0L304.310659 283.692281a33.437751 33.437751 0 0 1 0-47.989622l35.756973-35.0208zM1550.978076 426.371459l99.200692 97.125017a33.437751 33.437751 0 0 1 0 47.989621l-447.294271 437.950962c-13.538941 13.251114-35.480216 13.251114-49.019156 0l-317.462141-310.825513a8.800865 8.800865 0 0 0-12.254789 0L506.68627 1009.442595c-13.538941 13.251114-35.485751 13.251114-49.024692 0L10.361773 571.486097a33.437751 33.437751 0 0 1 0-47.995156l99.200692-97.125017c13.533405-13.251114 35.480216-13.251114 49.019157 0l317.467675 310.825514a8.800865 8.800865 0 0 0 12.254789 0L805.749622 426.371459c13.538941-13.251114 35.480216-13.256649 49.019156 0l317.467676 310.825514a8.800865 8.800865 0 0 0 12.254789 0L1501.958919 426.371459c13.538941-13.251114 35.480216-13.251114 49.019157 0z"
    fill="#3B99FC" p-id="17490"></path>
</svg>