<svg width="52px" height="52px" viewBox="0 0 52 52" version="1.1" xmlns="http://www.w3.org/2000/svg"
    xmlns:xlink="http://www.w3.org/1999/xlink">
    <title>logo_bridge</title>
    <g id="主页" stroke="none" stroke-width="1" fill="none" fill-rule="evenodd">
        <g id="跨链桥-01" transform="translate(-360.000000, -14.000000)">
            <g id="跨链桥/logo" transform="translate(360.000000, 14.000000)">
                <g id="logo_bridge" transform="translate(1.999519, 0.613128)">
                    <path
                        d="M21.070408,0.377829714 L38.011979,16.7060887 C39.2049538,17.8558614 39.239976,19.7550335 38.0902033,20.9480082 C38.0676873,20.9713702 38.0447939,20.9943653 38.021532,21.0169845 L34.8432666,24.1062797 L33.6472666,25.2922797 L33.6352666,25.2798297 L31.7637701,27.1422503 C32.6558032,25.9965568 32.5981777,24.3600461 31.6101986,23.2795793 L31.4760572,23.1418882 L31.288105,22.9611207 L25.582329,17.4615939 C25.4619052,17.3455311 25.3342022,17.2414966 25.2007286,17.1494905 L18.8865655,11.06537 C17.7710609,9.99026198 16.030948,9.94725766 14.8654748,10.936357 L14.7228703,11.06537 L0.000266606665,25.2538297 L0.000481402669,16.7648691 C0.000481402669,13.8811432 1.55247457,11.2205853 4.06266161,9.80113621 L19.5626616,1.03626714 C20.0466691,0.762572776 20.5520774,0.543093634 21.070408,0.377829714 Z"
                        id="形状结合" fill="#A27921"></path>
                    <path
                        d="M15.1920215,23.5211978 C14.3484194,24.6621194 14.419602,26.2586546 15.3873085,27.3205553 L15.5249056,27.462032 L21.4186338,33.1423263 C22.5341384,34.2174343 24.2742513,34.2604387 25.4397245,33.2713393 L25.582329,33.1423263 L31.4760572,27.462032 L31.5542814,27.3838077 C31.6388162,27.2960966 31.7169464,27.2045681 31.7886827,27.1098006 L31.7637701,27.1422503 L33.6352666,25.2798297 L33.6472666,25.2922797 L33.6476061,25.2911978 L40.5566061,31.9503504 L46.9996252,25.926 L47.0004814,34.0088744 C47.0004814,35.0902716 46.7822324,36.1402858 46.3770479,37.1052365 L46.2351059,37.4236627 L46.1436061,37.6081978 L46.0749771,37.7440654 L46.0749771,37.7440654 C46.0382854,37.813546 46.0007012,37.8822563 45.9621195,37.950398 C45.9502023,37.9714473 45.9380541,37.9926775 45.9258088,38.0138514 C45.8236571,38.1904753 45.7149048,38.362979 45.5996564,38.5311851 C45.5775549,38.5634389 45.555449,38.595203 45.5331108,38.6268096 C45.499246,38.6747297 45.4646357,38.7225736 45.4294904,38.7700415 C45.4031442,38.8056253 45.3764944,38.8410016 45.3495464,38.8761624 C45.3090718,38.9289675 45.2681404,38.9810189 45.2265511,39.0325757 C45.2052135,39.0590308 45.1833674,39.0857606 45.1613438,39.1123541 C45.1161731,39.1668923 45.0705307,39.2205431 45.02416,39.2736115 C45.0058066,39.2946159 44.9873386,39.3155297 44.968757,39.3363512 C44.6936284,39.6446594 44.393479,39.9328558 44.0703374,40.1975306 C44.0381857,40.2238668 44.0056011,40.250133 43.9727879,40.27616 C43.9260816,40.3132053 43.8790494,40.3496623 43.8315623,40.3856281 C43.796518,40.4121703 43.7611913,40.4384705 43.7256185,40.4644988 C43.6745986,40.5018303 43.623031,40.5386317 43.5709629,40.5748619 C43.5368465,40.5986016 43.5024334,40.6221512 43.4678063,40.6454512 L43.3180749,40.7437873 L43.3180749,40.7437873 C43.2795992,40.7684436 43.2410078,40.7927128 43.2021685,40.8166771 L43.1861039,40.826563 L43.1861039,40.826563 L42.9383012,40.9726073 L27.4383012,49.7374763 C26.9249976,50.0277369 26.3876243,50.2570205 25.8362941,50.4253272 L8.79676171,34.0035859 C7.60378696,32.8538132 7.56876478,30.9546412 8.71853748,29.7616664 C8.74412921,29.7351131 8.77020838,29.7090339 8.79676171,29.6834422 L12.3089349,26.2984579 L15.1920215,23.5211978 Z"
                        id="形状结合" fill="#CB9C37"></path>
                    <path
                        d="M18.8865655,11.06537 L25.2027352,17.1508749 C24.0996315,16.3891554 22.601524,16.4497241 21.5612383,17.3325809 L21.4186338,17.4615939 L15.5249056,23.1418882 L15.4466814,23.2201125 L15.4466814,23.2201125 C15.3556073,23.3146086 15.2719669,23.4135357 15.195747,23.5161702 L12.3089349,26.2984579 L8.79676171,29.6834422 C8.77020838,29.7090339 8.74412921,29.7351131 8.71853748,29.7616664 C7.61475569,30.9069222 7.60288086,32.7030094 8.65916463,33.8621092 L8.79676171,34.0035859 L25.8352899,50.4256337 C23.7624657,51.0581149 21.4924586,50.8287291 19.5626616,49.7374763 L4.06266161,40.9726073 C1.55247457,39.5531582 0.000481402669,36.8926003 0.000481402669,34.0088744 L0,25.2534419 L14.7228703,11.06537 C15.8848542,9.94546582 17.7245816,9.94546582 18.8865655,11.06537 Z"
                        id="形状结合" fill="#FFEBBA"></path>
                    <path
                        d="M27.4383012,1.03626714 L42.9383012,9.80113621 C45.4484882,11.2205853 47.0004814,13.8811432 47.0004814,16.7648691 L47.0003825,25.92 L40.5462994,31.9420404 L32.5799552,39.8559767 C31.4199594,41.0083413 29.5507981,41.0195642 28.3770483,39.8812119 L23.5004814,35.1517109 L23.5080595,35.1429288 L21.6263492,33.3250501 C22.7413029,34.2188746 24.3443231,34.200971 25.4397245,33.2713393 L25.582329,33.1423263 L31.4760572,27.462032 C31.5026105,27.4364402 31.5286897,27.4103611 31.5542814,27.3838077 C31.6634371,27.2705506 31.7619142,27.1509286 31.8497357,27.0261871 L38.0204788,21.0199823 C39.2078191,19.8643919 39.2335574,17.9650713 38.0779669,16.7777311 C38.0546973,16.7538222 38.0310305,16.7303031 38.0069763,16.7071836 L21.0307876,0.390576049 C23.1396504,-0.293936437 25.4665564,-0.0787060724 27.4383012,1.03626714 Z"
                        id="主色蓝" fill="#EAC97D"></path>
                </g>
            </g>
        </g>
    </g>
</svg>