<svg width="24px" height="24px" viewBox="0 0 24 24" version="1.1" xmlns="http://www.w3.org/2000/svg"
    xmlns:xlink="http://www.w3.org/1999/xlink">
    <title>icon_pop_closure_nor</title>
    <g id="主页" stroke="none" stroke-width="1" fill="none" fill-rule="evenodd">
        <g id="跨链桥-下拉弹层" transform="translate(-1136.000000, -252.000000)" fill="#A4A4AF">
            <g id="编组-9" transform="translate(736.000000, 234.000000)">
                <g id="icon/弹窗/关闭" transform="translate(400.000000, 18.000000)">
                    <g id="icon_pop_closure_nor" transform="translate(4.000000, 4.000000)">
                        <path
                            d="M15.6788785,0.317641804 C15.2552393,-0.105991806 14.5677983,-0.106009064 14.1456326,0.318361291 L7.99960863,6.4643946 L1.85349386,0.319080777 C1.42911788,-0.105289578 0.741728629,-0.105289578 0.3180894,0.319080777 C-0.105549829,0.742714387 -0.105549829,1.4301118 0.3180894,1.85374541 L6.46339476,7.99977867 L0.3180894,14.1458118 C-0.105549829,14.5694454 -0.106269325,15.2568427 0.317369904,15.6804764 L0.3180894,15.6811958 C0.741728629,16.1048294 1.42910057,16.1055662 1.85421336,15.6811958 L7.99960863,9.53588223 L14.1456326,15.6819153 C14.5677983,16.1055489 15.2567128,16.1062684 15.6788785,15.6826348 L15.681037,15.6804764 C16.1061498,15.2568427 16.1062224,14.5693727 15.6818465,14.1450023 L9.53573257,7.99977867 L15.6818465,1.8544649 C16.1062224,1.43083129 16.1061498,0.742714387 15.681037,0.319080777 L15.6788785,0.317641804 Z"
                            id="Vector"></path>
                    </g>
                </g>
            </g>
        </g>
    </g>
</svg>