<?xml version="1.0" encoding="UTF-8"?>
<svg width="48px" height="48px" viewBox="0 0 48 48" version="1.1" xmlns="http://www.w3.org/2000/svg" xmlns:xlink="http://www.w3.org/1999/xlink">
    <title>icon_pop_error</title>
    <g id="主页" stroke="none" stroke-width="1" fill="none" fill-rule="evenodd">
        <g id="跨链桥-已连接钱包-连接错误弹层" transform="translate(-1260.000000, -93.000000)">
            <g id="弹层" transform="translate(1121.000000, 69.000000)">
                <g id="icon_pop_error" transform="translate(139.000000, 24.000000)">
                    <path d="M24,0 C10.7464286,0 0,10.7464286 0,24 C0,37.2535714 10.7464286,48 24,48 C37.2535714,48 48,37.2535714 48,24 C48,10.7464286 37.2589286,0 24,0 Z" id="路径" fill="#FF1D44" fill-rule="nonzero"></path>
                    <path d="M23.8181818,18.7545455 L24.2200957,18.7545455 C25.3246652,18.7545455 26.2200957,19.649976 26.2200957,20.7545455 L26.2200957,33.7019139 C26.2200957,34.8064834 25.3246652,35.7019139 24.2200957,35.7019139 L23.8181818,35.7019139 C22.7136123,35.7019139 21.8181818,34.8064834 21.8181818,33.7019139 L21.8181818,20.7545455 C21.8181818,19.649976 22.7136123,18.7545455 23.8181818,18.7545455 Z M24.0191388,16.7019139 C25.2346937,16.7019139 26.2200957,15.7165119 26.2200957,14.5009569 C26.2200957,13.285402 25.2346937,12.3 24.0191388,12.3 C22.8035838,12.3 21.8181818,13.285402 21.8181818,14.5009569 C21.8181818,15.7165119 22.8035838,16.7019139 24.0191388,16.7019139 Z" id="形状结合" fill="#FFFFFF" transform="translate(24.019139, 24.000957) rotate(-180.000000) translate(-24.019139, -24.000957) "></path>
                </g>
            </g>
        </g>
    </g>
</svg>