<svg width="18px" height="18px" viewBox="0 0 18 18" version="1.1" xmlns="http://www.w3.org/2000/svg"
    xmlns:xlink="http://www.w3.org/1999/xlink">
    <title>icon_nav_wallet</title>
    <g id="主页" stroke="none" stroke-width="1" fill="none" fill-rule="evenodd">
        <g id="跨链桥-01" transform="translate(-1236.000000, -31.000000)">
            <g id="btn/导航/主网备份" transform="translate(1216.000000, 19.000000)">
                <g id="icon/钱包" transform="translate(20.000000, 12.000000)">
                    <g id="icon_nav_wallet" transform="translate(1.000000, 1.500000)">
                        <path
                            d="M14.1176471,11.8052338 L14.1176471,12.6917554 C14.1176471,14.2511476 12.8535099,15.5152848 11.2941176,15.5152848 L2.82352941,15.5152848 C1.26413718,15.5152848 0,14.2511476 0,12.6917554 L0,6.10352006 C0,4.54412782 1.26413718,3.27999065 2.82352941,3.27999065 L11.2941176,3.27999065 C12.8535099,3.27999065 14.1176471,4.54412782 14.1176471,6.10352006 L14.1176471,7.00401767 L14.1176471,7.00401767"
                            id="路径" stroke="#FFFFFF" stroke-width="1.5"></path>
                        <path
                            d="M2.33923095,3.3866175 L7.99536656,0.133053888 C8.44131714,-0.134000339 8.99349935,0.0143424151 9.28554442,0.458159907 C10.0525136,1.62371398 10.5583882,2.42494547 10.9161137,3.0252724"
                            id="路径" stroke="#FFFFFF" stroke-width="1.5"></path>
                        <g id="编组-4" transform="translate(7.529412, 7.044697)">
                            <path
                                d="M2.35294118,0 L7.47058824,0 C8.02287299,-1.01453063e-16 8.47058824,0.44771525 8.47058824,1 L8.47058824,3.70588235 C8.47058824,4.2581671 8.02287299,4.70588235 7.47058824,4.70588235 L2.35294118,4.70588235 C1.05344765,4.70588235 1.59142059e-16,3.65243471 0,2.35294118 C-1.59142059e-16,1.05344765 1.05344765,6.82802298e-16 2.35294118,0 Z"
                                id="矩形" stroke="#FFFFFF" stroke-width="1.5"></path>
                            <circle id="椭圆形" fill="#FFFFFF" cx="2.35294118" cy="2.35294118" r="1"></circle>
                        </g>
                    </g>
                </g>
            </g>
        </g>
    </g>
</svg>